<?xml version="1.0" encoding="UTF-8"?>
<svg id="Layer_2" data-name="Layer 2" xmlns="http://www.w3.org/2000/svg" viewBox="0 0 5000 2000">
  <defs>
    <style>
      .cls-1 {
        fill: none;
      }

      .cls-2 {
        fill: #009865;
      }

      .cls-3 {
        fill: #a547a7;
      }

      .cls-4 {
        fill: #fff;
      }

      .cls-5 {
        fill: #263e30;
      }
    </style>
  </defs>
  <g id="final">
    <g>
      <g>
        <path class="cls-5" d="M2813.36,1396.88c0,4.2.28,7.18.84,8.93.56,1.76,1.68,3.19,3.36,4.31.98.56,2.13,1.05,3.47,1.47,1.33.42,3.36.74,6.1.95,2.73.21,6.38.35,10.93.42,4.55.07,10.62.11,18.18.11,11.49,0,20.32-.07,26.49-.21,6.17-.14,10.69-.6,13.56-1.37,2.87-.77,4.55-2,5.04-3.68.49-1.68.74-4.06.74-7.15,0-4.2-1.09-7.01-3.26-8.41-2.17-1.4-6.69-2.17-13.56-2.31l-33.63-1.26-22.7-1.05-11.35-.42c-8.69-.28-15.87-1.12-21.55-2.52-5.68-1.4-10.19-3.64-13.56-6.73-3.36-3.08-5.75-7.18-7.15-12.3-1.4-5.11-2.1-11.53-2.1-19.24,0-13.31,2.07-23.26,6.2-29.85,4.13-6.58,11.04-10.93,20.71-13.03,4.06-.84,11.04-1.47,20.92-1.89,9.88-.42,23.3-.63,40.26-.63,10.23,0,18.92.14,26.07.42,7.15.28,13.21.74,18.18,1.37,4.97.63,9.11,1.51,12.4,2.63,3.29,1.12,6.2,2.53,8.72,4.21,4.21,2.8,7.22,6.59,9.04,11.35,1.82,4.77,2.73,11.35,2.73,19.76v2.52c0,1.26-.07,2.59-.21,4h-41.2c-.28-3.92-.67-6.59-1.16-7.99-.49-1.4-1.51-2.59-3.05-3.57-.84-.56-1.96-.98-3.36-1.26-1.4-.28-3.47-.52-6.2-.73-2.73-.21-6.45-.35-11.14-.42-4.7-.07-10.83-.11-18.39-.11-8.97,0-16.08.11-21.34.32-5.26.21-9.18.67-11.77,1.37-2.6.7-4.24,1.82-4.94,3.36-.7,1.54-1.05,3.57-1.05,6.1,0,5.04,2.1,8.06,6.31,9.04.98.28,2.48.53,4.52.74,2.03.21,4.8.42,8.3.63,3.5.21,7.88.39,13.14.53,5.26.14,11.59.35,19.02.63,11.63.42,21.09.81,28.38,1.16,7.29.35,13.2.81,17.76,1.37,4.55.56,8.16,1.3,10.83,2.21,2.66.91,5.11,2.07,7.36,3.47,4.9,3.23,8.34,7.46,10.3,12.72,1.96,5.26,2.94,12.79,2.94,22.6,0,12.33-1.58,21.69-4.73,28.06-3.15,6.38-8.38,10.97-15.66,13.77-2.1.84-4.87,1.51-8.3,2-3.44.49-7.81.91-13.14,1.26-5.33.35-11.77.59-19.34.73-7.57.14-16.61.21-27.12.21s-20.25-.14-27.96-.42c-7.71-.28-14.29-.73-19.76-1.37-5.47-.63-9.99-1.47-13.56-2.52-3.57-1.05-6.62-2.35-9.15-3.89-2.38-1.54-4.41-3.26-6.09-5.15-1.68-1.89-3.02-4.13-4-6.73-.98-2.59-1.68-5.68-2.1-9.25-.42-3.57-.63-7.74-.63-12.51v-6.73h41.41Z"/>
        <path class="cls-5" d="M3083.15,1303.12l45.62,56.13,43.72-56.13h55.71l-76.73,90.6v49.61h-44.14v-49.61l-80.3-90.6h56.13Z"/>
        <path class="cls-5" d="M3354.62,1396.88c0,4.2.28,7.18.84,8.93.56,1.76,1.68,3.19,3.36,4.31.98.56,2.13,1.05,3.47,1.47,1.33.42,3.36.74,6.1.95,2.73.21,6.38.35,10.93.42,4.55.07,10.62.11,18.18.11,11.49,0,20.32-.07,26.49-.21,6.17-.14,10.69-.6,13.56-1.37,2.87-.77,4.55-2,5.04-3.68.49-1.68.74-4.06.74-7.15,0-4.2-1.09-7.01-3.26-8.41-2.17-1.4-6.69-2.17-13.56-2.31l-33.63-1.26-22.7-1.05-11.35-.42c-8.69-.28-15.87-1.12-21.55-2.52-5.68-1.4-10.19-3.64-13.56-6.73-3.36-3.08-5.75-7.18-7.15-12.3-1.4-5.11-2.1-11.53-2.1-19.24,0-13.31,2.07-23.26,6.2-29.85,4.13-6.58,11.04-10.93,20.71-13.03,4.06-.84,11.04-1.47,20.92-1.89,9.88-.42,23.3-.63,40.26-.63,10.23,0,18.92.14,26.07.42,7.15.28,13.21.74,18.18,1.37,4.97.63,9.11,1.51,12.4,2.63,3.29,1.12,6.2,2.53,8.72,4.21,4.21,2.8,7.22,6.59,9.04,11.35,1.82,4.77,2.73,11.35,2.73,19.76v2.52c0,1.26-.07,2.59-.21,4h-41.2c-.28-3.92-.67-6.59-1.16-7.99-.49-1.4-1.51-2.59-3.05-3.57-.84-.56-1.96-.98-3.36-1.26-1.4-.28-3.47-.52-6.2-.73-2.73-.21-6.45-.35-11.14-.42-4.7-.07-10.83-.11-18.39-.11-8.97,0-16.08.11-21.34.32-5.26.21-9.18.67-11.77,1.37-2.6.7-4.24,1.82-4.94,3.36-.7,1.54-1.05,3.57-1.05,6.1,0,5.04,2.1,8.06,6.31,9.04.98.28,2.48.53,4.52.74,2.03.21,4.8.42,8.3.63,3.5.21,7.88.39,13.14.53,5.26.14,11.59.35,19.02.63,11.63.42,21.09.81,28.38,1.16,7.29.35,13.2.81,17.76,1.37,4.55.56,8.16,1.3,10.83,2.21,2.66.91,5.11,2.07,7.36,3.47,4.9,3.23,8.34,7.46,10.3,12.72,1.96,5.26,2.94,12.79,2.94,22.6,0,12.33-1.58,21.69-4.73,28.06-3.15,6.38-8.38,10.97-15.66,13.77-2.1.84-4.87,1.51-8.3,2-3.44.49-7.81.91-13.14,1.26-5.33.35-11.77.59-19.34.73-7.57.14-16.61.21-27.12.21s-20.25-.14-27.96-.42c-7.71-.28-14.29-.73-19.76-1.37-5.47-.63-9.99-1.47-13.56-2.52-3.57-1.05-6.62-2.35-9.15-3.89-2.38-1.54-4.41-3.26-6.09-5.15-1.68-1.89-3.02-4.13-4-6.73-.98-2.59-1.68-5.68-2.1-9.25-.42-3.57-.63-7.74-.63-12.51v-6.73h41.41Z"/>
        <path class="cls-5" d="M3746.96,1303.12v35.74h-62.43v104.47h-44.99v-104.47h-62.43v-35.74h169.85Z"/>
        <path class="cls-5" d="M3997.62,1303.12v33.22h-113.09v19.97h107.42v31.11h-107.42v22.28h113.94v33.63h-156.19v-140.21h155.35Z"/>
        <path class="cls-5" d="M4174.71,1303.12l41.62,91.02,41.83-91.02h76.94v140.21h-42.04l1.05-104.9h-7.15l-52.76,104.9h-35.52l-52.76-104.9h-7.57l1.05,104.9h-42.04v-140.21h77.36Z"/>
        <path class="cls-5" d="M4476.66,1396.88c0,4.2.28,7.18.84,8.93.56,1.76,1.68,3.19,3.36,4.31.98.56,2.13,1.05,3.47,1.47,1.33.42,3.36.74,6.1.95,2.73.21,6.38.35,10.93.42,4.55.07,10.62.11,18.18.11,11.49,0,20.32-.07,26.49-.21,6.17-.14,10.69-.6,13.56-1.37,2.87-.77,4.55-2,5.04-3.68.49-1.68.74-4.06.74-7.15,0-4.2-1.09-7.01-3.26-8.41-2.17-1.4-6.69-2.17-13.56-2.31l-33.63-1.26-22.7-1.05-11.35-.42c-8.69-.28-15.87-1.12-21.55-2.52-5.68-1.4-10.19-3.64-13.56-6.73-3.36-3.08-5.75-7.18-7.15-12.3-1.4-5.11-2.1-11.53-2.1-19.24,0-13.31,2.07-23.26,6.2-29.85,4.13-6.58,11.04-10.93,20.71-13.03,4.06-.84,11.04-1.47,20.92-1.89,9.88-.42,23.3-.63,40.26-.63,10.23,0,18.92.14,26.07.42,7.15.28,13.21.74,18.18,1.37,4.97.63,9.11,1.51,12.4,2.63,3.29,1.12,6.2,2.53,8.72,4.21,4.21,2.8,7.22,6.59,9.04,11.35,1.82,4.77,2.73,11.35,2.73,19.76v2.52c0,1.26-.07,2.59-.21,4h-41.2c-.28-3.92-.67-6.59-1.16-7.99-.49-1.4-1.51-2.59-3.05-3.57-.84-.56-1.96-.98-3.36-1.26-1.4-.28-3.47-.52-6.2-.73-2.73-.21-6.45-.35-11.14-.42-4.7-.07-10.83-.11-18.39-.11-8.97,0-16.08.11-21.34.32-5.26.21-9.18.67-11.77,1.37-2.6.7-4.24,1.82-4.94,3.36-.7,1.54-1.05,3.57-1.05,6.1,0,5.04,2.1,8.06,6.31,9.04.98.28,2.48.53,4.52.74,2.03.21,4.8.42,8.3.63,3.5.21,7.88.39,13.14.53,5.26.14,11.59.35,19.02.63,11.63.42,21.09.81,28.38,1.16,7.29.35,13.2.81,17.76,1.37,4.55.56,8.16,1.3,10.83,2.21,2.66.91,5.11,2.07,7.36,3.47,4.9,3.23,8.34,7.46,10.3,12.72,1.96,5.26,2.94,12.79,2.94,22.6,0,12.33-1.58,21.69-4.73,28.06-3.15,6.38-8.38,10.97-15.66,13.77-2.1.84-4.87,1.51-8.3,2-3.44.49-7.81.91-13.14,1.26-5.33.35-11.77.59-19.34.73-7.57.14-16.61.21-27.12.21s-20.25-.14-27.96-.42c-7.71-.28-14.29-.73-19.76-1.37-5.47-.63-9.99-1.47-13.56-2.52-3.57-1.05-6.62-2.35-9.15-3.89-2.38-1.54-4.41-3.26-6.09-5.15-1.68-1.89-3.02-4.13-4-6.73-.98-2.59-1.68-5.68-2.1-9.25-.42-3.57-.63-7.74-.63-12.51v-6.73h41.41Z"/>
      </g>
      <g>
        <rect class="cls-5" x="3156.95" y="-341.74" width="386.1" height="2683.47" transform="translate(4173.3 -2397.74) rotate(87)"/>
        <path class="cls-4" d="M2186.94,996.73l8.06,153.81c.41,7.77-12.81,31.44-21.69,31.91l-44.37,2.33c-25.88,1.36-38.78-4.27-39.44-16.84-.47-8.87,16.9-45.38,16.82-46.85l-6.01-114.62c-.5-9.61-23.73-42.5-24-47.68-.27-5.18,6.95-15.94,22.48-16.75l65.81-3.45c29.58-1.55,44.21,1.76,44.66,10.26.21,4.07-22.78,39.38-22.33,47.88ZM2331.67,1147.82c.48,9.24-7.36,22.26-17.11,27.22l-71.36,3.74c-5.1-5.29-13.56-18.2-13.91-24.85-.1-1.85,1.95-5.29,6.15-9.96l9.13-9.75c12.57-14.74,12.94-14.76,16.88-38.7,4.22-18.39,9.4-25.7,29-26.73,10.72-.56,20.08,1.17,28.04,4.46,6.79,9.28,10.21,18,10.56,24.66l2.62,49.91Z"/>
        <path class="cls-4" d="M2477.64,1167.98c-39.56,2.07-109.44-58.03-111.26-92.78l-3.06-58.42c-.08-1.48.48-4.84,1.71-9.73,9.78-39.81,58.55-78.33,93.31-80.15,11.83-.62,23.72-.13,24.48,14.29.91,17.38-19.73,76.29-18.95,91.08l1.65,31.43c6.98,34.12,29.73,79.26,29.93,82.96.37,7.02-2.63,20.53-17.79,21.32ZM2547.64,1166.53c-11.83.62-16.83-2.83-17.57-16.87-1.03-19.6,14.98-67.89,11.8-128.53l-2.25-7.67c-9.3-28.8-16.45-52.15-17.09-71.4l-.1-8.89c6.97-1.48,13.58-2.57,19.87-2.9,53.98-2.83,92.97,47.78,96.41,113.59,3.55,67.66-31.18,119.53-91.08,122.67Z"/>
        <path class="cls-4" d="M2783.87,966.55c-9.65,13.85-10.55,25.03-8.5,64.21,1.07,20.34,11.04,69.12,11.1,70.23l2.44,46.59c-3.55,3.15-7.55,4.47-12.73,4.74-34.38,1.8-98-51.96-99.84-87.08l-2.85-54.35c-.04-.74,1.65-3.79,2.9-8.3,14.76-50.83,65.73-89.83,99.75-91.61,8.5-.45,13.78,1.13,15,24.42.74,14.05-2.13,23.1-7.27,31.15ZM2843.28,1145.11c-10.72.56-18.17-7.21-18.99-22.73-.16-2.96.47-5.22,1.83-7.51l16.06-40.14c14.76-29.69,32.68-41.38,46-42.08,12.94-.68,20.12,8.95,21.14,28.55,2.38,45.48-33.14,82.19-66.04,83.91ZM2916.43,970.36c1.01,19.23-15.44,30.84-25.05,31.34-24.77,1.3-61.35-45.72-62.94-76.04-.1-1.85-.23-4.44.04-6.3,9.55-1.61,47.95-11.78,59.41-12.38,14.42-.76,25.53,6.08,26.13,17.54l2.4,45.85Z"/>
        <path class="cls-4" d="M3061.13,949.43l6.57,125.34c.33,6.29,16.34,28.8,16.67,35.09.41,7.77-4.36,15.8-15.05,24.14l-83.19,4.36c-7.39.39-6.65.35-18.43-12.01l-.46-1.83c.12-4.82.82-12.64,4.71-23.23l7.67-23.39c.88-4.49.92-10.8.53-18.19-.23-4.44-1.48-14.01-1.71-18.45l-4.5-85.78c-.23-4.44-17.52-30.22-18.84-55.37l101.3-5.31c12.94-.68,20.88,9.29,21.21,15.57.41,7.76-16.43,40.16-16.49,39.05ZM3243.1,1124.89l-105,5.5c-9.24.48-14.16-8.52-15.13-27.01-.23-4.44-.14-16.68-.33-20.37-.37-7.03-1.36-11.79-2.64-15.06-13.05-22.67-26.2-47.19-27.09-64.2-.7-13.31,21.83-57.5,21.42-65.26-.35-6.66-4.84-21.62-5.17-27.91-.58-11.09,10.11-19.44,23.42-20.14l91.32-4.79c3.97,4.99,6.42,9.31,6.63,13.37,1.22,23.29-66.54,53.17-64.95,83.48.56,10.72,7.6,24.81,22.13,40.36l39.63,41.67c13.81,15.96,21.23,30.03,21.79,40.75.37,7.03-1.87,13.82-6.02,19.59Z"/>
        <path class="cls-4" d="M3394.94,1083.94c.64,12.2-10.77,35.04-21.49,35.6l-62.11,3.26c-.39-.35-19.09-3.45-19.78-16.76-.54-10.35,19.06-53.64,18.48-64.74l-5.13-97.98c-.1-1.85-2.14-5.45-5.74-10.45-11.07-13.14-9.84-10.98-13.67-48.59l85.04-4.46,14.38,12.59,10.04,191.52ZM3470.56,1111.86c-12.94.68-25.61-.51-39.13-3.88-2.47-4.69-3.44-9.09-3.66-13.16-.37-7.02,3.04-12.76,10.46-19.83,23.69-22,23.06-26.79,30.56-60.55l1.17-5.99-1.69-32.17c-.12-2.22-1.57-8.82-4.36-19.42-6.14-25.26-6.12-24.89-16.48-31.39-22.2-13.3-29.86-25.13-30.08-29.2-.93-17.75,32.62-21.36,46.67-22.09,56.57-2.96,96.78,42.75,100.31,110.05,3.64,69.51-33.89,124.49-93.78,127.63Z"/>
        <path class="cls-4" d="M3714.7,1103.14c-39.56,2.07-109.44-58.03-111.26-92.78l-3.06-58.42c-.08-1.48.48-4.84,1.71-9.73,9.78-39.81,58.55-78.33,93.31-80.15,11.83-.62,23.72-.13,24.48,14.29.91,17.38-19.73,76.29-18.95,91.08l1.65,31.43c6.98,34.12,29.73,79.26,29.93,82.96.37,7.02-2.63,20.53-17.79,21.32ZM3784.7,1101.7c-11.83.62-16.83-2.83-17.57-16.87-1.03-19.6,14.98-67.89,11.8-128.53l-2.25-7.67c-9.3-28.8-16.45-52.15-17.09-71.4l-.1-8.89c6.97-1.48,13.58-2.57,19.87-2.9,53.98-2.83,92.97,47.78,96.41,113.59,3.55,67.66-31.18,119.53-91.08,122.67Z"/>
        <path class="cls-4" d="M4051.65,1085.12l-46.59,2.44c-20.7,1.09-33.81-43.83-74.45-154.41-.86-2.18-32.37-51.69-38.9-70.25,7.3-9.28,19.64-14.38,37.39-15.31l63.96-3.35,18.95,21.99-8.4,44.93,48.04,173.96ZM4162.06,1083.78c-9.24.48-18.37-3.86-26.31-13.82-2.72-2.45-28.53-56.34-40-55.74-4.8.25-16.19,2.33-21,2.58-3.48-2.78-9.9-12.09-19.3-28.65l-2.15-41.04c-.33-6.28,6.49-31.85,6.08-39.62-.21-4.07-1.96-9.17-5.27-15.66-8.62-15.86-8.56-14.75-9.24-27.69-.1-1.85,4.58-11.73,4.39-15.43-.06-1.11-.12-2.22-.53-2.94l70.99-3.72c10.35-.54,19.09,3.45,26.58,11.95l.23,4.44c.6,11.46-7.97,46.02-7.47,55.63s10.09,36.91,29.48,81.5c14.33,32.98,21.9,57.06,22.64,71.11.7,13.31-23.59,16.81-29.14,17.1ZM4254.96,903.92c-13.12,32.57-29.62,113.89-29.25,113.87-19.17-11.97-33.27-33.48-34.24-51.97-.58-11.09,8.4-44.93,7.88-54.91-.23-4.44-13.15-38.61-13.63-47.85s2.48-16.44,8.16-21.19l67.29-3.53c8.87-.47,15.04,11.08,15.76,24.75.74,14.05-20.66,37.42-21.96,40.82Z"/>
        <path class="cls-4" d="M4543.85,1057.84c-13.31.7-27.77-6.33-43.37-21.09-15.62-15.12-65.43-81.1-72.48-88.52-1.83.46-6.81,4.44-13.08,12.18l2.38,45.48c.06,1.11,18.98,29.78,19.33,36.43.45,8.5-5.45,16.23-17.71,22.8l-41.04,2.15c-29.21,1.53-43.47-1.8-43.92-10.3-.19-3.7,17.31-37.61,16.9-45.38l-6.22-118.68c-.37-7.03-29.45-45.54-29.72-50.72-.41-7.77,9.36-12.35,29.33-13.4l78.01-4.09c6.66-.35,15.26,1.06,26.19,4.56,46.92,60.57,110.49,162.9,130.33,208.94-11.21,12.45-23.1,19.01-34.93,19.63ZM4596.49,866.74c1.32,25.14,1.69,39.21,1.43,41.45l-5.87,64.82c-13.15-10.43-25.04-25.01-34.53-43.42-10.7-20.2-34.42-90.88-40.71-104.64,7.79-7.08,29.7-13.42,37-15.65l38.08-2c12.2-.64,20.94,10.39,21.25,16.31.35,6.66-16.78,40.55-16.65,43.14Z"/>
      </g>
    </g>
    <rect class="cls-1" x="0" y="0" width="2000" height="2000"/>
    <circle class="cls-1" cx="1000" cy="1000" r="1000"/>
    <rect class="cls-1" x="300" y="300" width="1400" height="1400" transform="translate(2000 0) rotate(90)"/>
    <rect class="cls-1" x="0" width="5000" height="2000"/>
    <g>
      <path class="cls-2" d="M956.92,1665.18c-70.62,0-130.89-8.3-153.56-21.15-2.18-1.23-3.2-3.77-2.48-6.17.31-1.03,30.91-104.31,3.42-179.8-.73-2-2.63-3.29-4.7-3.29-.33,0-.67.03-1.01.1-41.96,8.6-91.35,14.02-135.49,14.88-1.33.03-2.59.58-3.51,1.53-.92.96-1.42,2.24-1.39,3.56.88,44.35,3.5,80.54,8.03,110.65.4,2.66-1.26,5.21-3.85,5.92-23.44,6.46-69.1,12.99-118.29,12.99-8,0-15.95-.17-23.63-.51-48.85-2.16-114.21-12.29-148.12-48.33-.77-.82-1.27-1.89-1.41-3-3.78-31.19,5.2-85.16,22.88-137.5.79-2.33-.24-4.89-2.42-6.03-36.14-18.91-62.25-40.81-77.61-65.1-12.58-19.9-12.97-61.64,6.5-92.08,13.07-20.44,32.69-31.24,56.74-31.24.64,0,1.29,0,1.93.02.04,0,.08,0,.12,0,2.39,0,4.46-1.7,4.91-4.06,3.01-15.68,6.43-31.13,10.15-45.92.43-1.71-.07-3.51-1.31-4.75-25.12-25.16-43.28-57.24-52.52-92.77-12.24-47.03-8.67-100.19,10.04-149.68.8-2.12,2.74-3.44,5.05-3.44h.17c2.24.08,4.22,1.61,4.87,3.8,14.46,48.4,36.91,94.15,64.91,132.29.95,1.29,2.45,2.04,4.03,2.04.17,0,.35,0,.52-.03,1.77-.19,3.3-1.29,4.04-2.91,20.94-46.34,46.89-88.11,77.13-124.15,74.09-88.29,179.35-143.03,281.56-146.44,3.56-.12,7.21-.18,10.85-.18,50.97,0,100,11.52,132.45,20.18,22.63,6.04,58.7,16.55,101.98,32.31.55.2,1.13.3,1.71.3.93,0,1.85-.26,2.66-.77,1.31-.82,2.16-2.2,2.31-3.74.74-7.45,1.82-15.14,3.21-22.85.03-.17.05-.35.07-.52.03-.36.07-.66.13-.9l.2-.8c.02-.1.05-.2.06-.29,1.47-7.8,3.31-15.87,5.47-24,.37-1.4.12-2.9-.7-4.1-.82-1.2-2.12-1.99-3.56-2.15-3.23-.38-6.6-.75-10.05-1.13-14.85-1.64-30.15-3.33-42.12-6.05-23.54-5.36-49.23-13.8-61.25-35.76-1.09-1.99-.99-4.42.25-6.36.47-.73,5.67-7.25,44.97-12.16,1.86-.23,3.43-1.48,4.08-3.24s.25-3.73-1.02-5.11c-12.68-13.73-20.29-29.7-22.02-46.18-.17-1.61.39-3.18,1.53-4.32.99-1,2.36-1.56,3.75-1.56.19,0,.37.01.56.03,20.79,2.2,42.76,5.09,63.02,13.95,7.66,3.35,33.79,15.69,48.34,34.03.95,1.2,2.39,1.89,3.92,1.89.07,0,.15,0,.22,0,1.6-.07,3.07-.91,3.96-2.25,2.18-3.32,4.39-6.47,6.56-9.36,2.88-3.85,6.02-7.68,9.32-11.38,1.69-1.89,1.69-4.75,0-6.64-.59-.66-1.17-1.32-1.74-2-23.75-28.19-54.25-57.77-83.76-86.38l-.1-.1c-6.79-6.58-14.01-13.58-21.06-20.49-1.66-1.62-2.07-4.11-1.03-6.18.89-1.79,2.76-2.94,4.76-2.94.27,0,.54.02.81.06,54.36,8.38,101.04,30.82,146.18,52.52,3.93,1.89,7.87,3.78,11.82,5.67.69.33,1.43.49,2.15.49,1.38,0,2.74-.57,3.71-1.64,1.48-1.64,1.72-4.05.57-5.95-10.29-17.02-22.42-37.44-35.26-59.06l-.19-.32c-21.12-35.56-42.96-72.34-54.81-90.74-1.32-2.05-1.08-4.73.58-6.52,1-1.07,2.42-1.69,3.9-1.69.89,0,1.77.23,2.55.66,54.88,30.11,97.76,62.73,139.04,105.78.97,1.01,2.28,1.54,3.61,1.54.87,0,1.75-.23,2.54-.7,2-1.18,2.92-3.58,2.22-5.8-18.54-59.11-51.66-168.97-55.37-181.3-.72-2.41.3-4.95,2.49-6.18.8-.45,1.69-.68,2.6-.68,1.51,0,2.96.65,3.98,1.77,3.05,3.4,75.36,84.05,122.31,144.67.96,1.24,2.43,1.94,3.95,1.94.49,0,.98-.07,1.46-.22,1.99-.61,3.39-2.38,3.53-4.45,4.34-65.81,18.7-156.7,31.35-198.49.68-2.26,2.73-3.78,5.1-3.78,2.4.02,4.48,1.61,5.12,3.87,11.68,41.26,21.01,84.41,30.03,126.13,4.83,22.34,9.83,45.45,15.24,68.41.53,2.26,2.55,3.85,4.87,3.85h0c2.32,0,4.34-1.61,4.86-3.87,13.65-59.06,60.87-149.31,97.15-185.7,1-1.01,2.35-1.56,3.77-1.56.86,0,1.71.21,2.47.61,2.07,1.08,3.18,3.36,2.76,5.67-13.87,76.28-21.97,149.27-25.48,229.71-.08,1.73-.14,3.48-.2,5.24-.05,1.59.65,3.12,1.91,4.1.89.7,1.98,1.07,3.09,1.07.45,0,.9-.06,1.34-.18,4.83-1.35,9.75-2.03,14.62-2.03,11.92,0,23.55,3.96,34.57,11.78,50.66,35.92,44.25,111.14,40.01,160.91l-.08,1.01c-.03.36-.02.73.03,1.09.02.14.03.27.04.41.09,2.28,1.71,4.2,3.94,4.68,14.29,3.09,27.45,7.86,39.1,14.16,30.01,16.23,50.54,44.11,59.39,80.62,16.24,67-8.64,150.9-41.6,199.15-.99,1.45-2.63,2.32-4.39,2.32-.2,0-.39-.01-.59-.03-1.93-.21-3.61-1.47-4.35-3.29-6.55-16.14-18.59-29.33-35.79-39.21-.78-.45-1.64-.66-2.49-.66-1.31,0-2.61.52-3.58,1.5-29.01,29.66-63.6,50.12-102.82,60.79-3.67,1-7.51,1.94-11.41,2.79-2.3.5-3.94,2.55-3.93,4.91.12,29.68-1.76,58.18-5.61,84.71-.12.83-.03,1.68.26,2.47.19.51.3,1.04.33,1.58,1.48,27.82-4.03,75.36-25.29,92.29-.67.53-1.18,1.22-1.51,2.01-6.37,15.47-13.79,30.33-22.07,44.19-1.15,1.92-.88,4.38.67,6.01,25.47,26.84,43,65.23,53.23,92.7,18.18,48.86,28.32,103.56,24.66,133.03-.14,1.18-.69,2.29-1.53,3.12-17.44,17.33-55.58,38.61-138.28,41.59-6.25.23-12.7.34-19.18.34-47.02,0-90.86-5.99-113.44-11.92-2.65-.7-4.33-3.26-3.91-5.97,5.05-32.48,4.68-70.87-1.05-108.11-.22-1.4-1.02-2.65-2.21-3.42-.82-.54-1.77-.82-2.74-.82-.43,0-.86.06-1.29.17-36.5,9.71-77.19,15.7-120.95,17.79-1.59.08-3.05.91-3.93,2.24s-1.07,3-.51,4.5c19.64,52.77,27.95,113.83,24.02,176.59-.11,1.7-1.03,3.26-2.48,4.18-21.55,13.56-85.56,22.68-159.28,22.68Z"/>
      <path class="cls-4" d="M1330.76,801c-1.15,0-2.3-.4-3.23-1.18-21.31-18-33.81-44.19-37.15-77.84-4.33-43.67,5.9-130.32,75.61-145.72,4.08-.9,8.14-1.36,12.09-1.36,15.47,0,29.66,6.85,42.16,20.36,18.22,19.69,27.67,47.89,30.44,67.73,4.57,32.81,4.45,61.38-.37,84.91-.37,1.82-1.72,3.28-3.5,3.8-54.32,15.82-94.43,37.24-113.5,48.6-.79.47-1.68.7-2.56.7ZM1467.3,746.07c-1.24,0-2.44-.46-3.37-1.31-1.22-1.12-1.81-2.77-1.57-4.42,3.36-22.87,2.98-49.39-1.12-78.84-.32-2.33-.75-4.81-1.26-7.38-.22-1.1-.06-2.23.44-3.23,5.65-11.18,11.91-19.57,18.61-24.93,8.84-7.09,17.78-10.68,26.56-10.68,7.52,0,14.69,2.67,21.32,7.95,3.97,3.16,7.34,6.78,10.03,10.76,15.49,22.94,22.01,66.89,14.55,97.96-.54,2.24-2.54,3.83-4.85,3.83-23.94.05-50.23,3.47-78.15,10.16-.39.09-.78.14-1.17.14Z"/>
      <path class="cls-3" d="M1114.34,669.19c-.11,0-.21,0-.32-.01-1.34-.09-2.58-.71-3.46-1.72l-.22-.26c-.16-.18-.32-.37-.48-.55-22.22-26.37-49.34-53.07-79.92-82.73-1.64-1.59-1.99-4.08-.86-6.07.91-1.59,2.58-2.52,4.34-2.52.44,0,.88.06,1.32.18,38.08,10.4,72.13,26.77,108.19,44.11,5.91,2.84,12.78,6.14,19.62,9.37,1.74.82,2.85,2.56,2.86,4.49s-1.07,3.68-2.8,4.52c-16.81,8.24-31.93,18.31-44.93,29.92-.92.82-2.11,1.27-3.33,1.27ZM1193.19,625.59c15.98-5.27,32.88-9.13,50.22-11.48,1.63-.22,3.05-1.23,3.79-2.7.13-.27.28-.53.42-.79l.34-.64c.68-1.3.75-2.82.21-4.18-.61-1.52-1.23-3.13-1.89-4.94-.2-.54-.49-1.05-.86-1.49-41.69-49.91-82.42-86.27-132.08-117.91-.83-.53-1.76-.78-2.68-.78-1.27,0-2.53.48-3.49,1.42-1.66,1.62-1.99,4.17-.79,6.16,9.92,16.46,21.33,35.68,32.37,54.26l.77,1.3c17.72,29.84,36.05,60.7,47.88,79.67.93,1.5,2.55,2.36,4.24,2.36.52,0,1.05-.08,1.56-.25ZM1261.5,588.52c13.19-17.52,30.34-32.65,49.61-43.76,1.5-.87,2.45-2.45,2.5-4.18l.02-.88c.03-1.1-.31-2.19-.96-3.08-27.42-37.66-72.58-90.76-105.63-128.67-.98-1.12-2.36-1.71-3.77-1.71-.83,0-1.66.2-2.42.63-2.06,1.14-3.05,3.57-2.36,5.82,17.14,56.56,46.77,153.83,52.64,169.77.55,1.49,1.1,3.06,1.65,4.68.6,1.75,2.12,3.02,3.95,3.31.26.04.52.06.78.06,1.55,0,3.04-.73,3.99-1.99ZM1331.29,534.98c6.28-2.48,12.44-4.39,18.31-5.7,13.17-2.92,25.55-4.41,36.79-4.41,1.04,0,2.06.01,3.08.04.04,0,.08,0,.12,0,1.51,0,2.94-.68,3.89-1.86.98-1.21,1.33-2.81.96-4.32-6.61-27.14-12.58-54.76-18.36-81.47l-.04-.19c-6.1-28.19-12.4-57.34-19.44-85.88-.55-2.24-2.56-3.8-4.85-3.8-.03,0-.07,0-.1,0-2.34.05-4.33,1.71-4.8,4-11.53,56.39-21.16,133.26-22.4,178.82-.05,1.68.75,3.27,2.13,4.23.85.6,1.86.9,2.87.9.62,0,1.24-.12,1.83-.35ZM1475.29,574.23c1.02-.79,2.14-1.6,3.43-2.49,1.28-.88,2.07-2.31,2.15-3.86.14-2.65.25-5.45.36-8.55.09-2.58.18-5.15.28-7.67,2.93-66.96,9.15-129.85,19.03-192.26.37-2.3-.91-4.56-3.08-5.42-.6-.24-1.23-.36-1.86-.36-1.61,0-3.16.77-4.12,2.16-35.95,52.06-69.37,129.86-72.99,169.89-.2,2.24,1.11,4.34,3.22,5.13,19.1,7.19,33.77,20.53,46.18,41.98.72,1.25,1.95,2.12,3.36,2.4.32.06.64.09.96.09,1.1,0,2.17-.36,3.06-1.04Z"/>
      <path class="cls-3" d="M1085.92,1094.33c-1.64-21.74-5.89-65-10.35-84.86-.5-2.23-3.96-15.81-5.45-21.38-1.84-6.38-3.84-12.63-5.95-18.58l-7.1-21.73c-2.63-8.82-8.81-38.47-10.65-46.77-2.47-16.28-3.49-31.9-3.12-47.74.05-2.14-1.27-4.08-3.29-4.81-3.05-1.11-6.13-2.22-9.23-3.32-.54-.19-22.83-8.04-23.39-8.04-11.96-3.97-34.53-10.69-52.77-16.02.02-.02.02-.03,0-.03-.03,0-.05,0-.08,0-7.16-2.09-13.66-3.96-18.57-5.37,0,0-2.89-.78-2.93-.79-33.68-8.99-78.8-15.23-111.54-18.24-.05-.07-.11-.08-.21-.02-7.29-.67-13.97-1.18-19.76-1.52h-.03c-3.19.02-5.99.07-8.56.16-52.04,1.74-124.27,28.15-174.51,56.05-14.07,8.81-38.58,29.04-58.14,45.87h0c.13-1.23-22.01,19.32-21.09,18.5-6.94,7.18-13.67,14.66-20.02,22.22-4.81,5.73-25.76,34.3-30.67,40.77-13.38,19.83-34.54,59.94-45.54,82.3-.05.09-.07.15-.09.2-18.58,41.48-38.05,109.94-48.79,159.08l-.08.44c-.32,1.7-.64,3.4-.96,5.1-.11.61-.11,1.24,0,1.85,7.38,37.93,66.67,86.03,137.91,111.89,44.71,16.23,90.02,24.46,134.67,24.47h.01c56.36,0,111.11-13.01,162.7-38.66,62.04-30.85,115.88-76.01,167.96-119.68l.51-.43c13.52-11.34,27.5-23.06,41.41-34.35,10.76-8.73,23.68-19.02,37.88-29.07.91-.64,1.57-1.56,1.89-2.62,2.13-6.98,4.72-14.15,7.7-21.3.25-.59.38-1.22.38-1.86.09-7.24.03-14.54-.19-21.72Z"/>
      <g>
        <path class="cls-5" d="M701.8,875.59c6.65,5.02,16.35,6.99,26.45,6.99,16.57,0,34.19-5.31,40.99-11.15h0c8.54-7.34,14.05-20.98,8.08-32.86-4.52-9-14.63-14.6-27.72-15.35-10.91-.6-45.37,3.05-53.17,19.96-8.76,18.99.83,29,5.37,32.42ZM715.07,852.02c2.75-3.84,19.94-8.26,31.22-8.26.73,0,1.45.02,2.13.06,5.2.3,9.4,1.91,10.46,4.01.97,1.93-.5,5.7-3.09,7.92-5.25,4.39-33.62,9.42-41.56,3.33-1.54-1.18-.06-5.07.85-7.07Z"/>
        <path class="cls-5" d="M735.52,1068.82h0c3.54.27,7.04.39,10.52.39,18.52,0,36.24-3.44,53.48-6.79,26.07-5.06,50.68-9.84,76.24-2.75,5.12,1.43,10.54-1.31,12.43-6.31,7.88-20.92-4.27-40.25-14.03-55.79-3.08-4.9-5.98-9.53-8.18-13.92-1.45-2.9-4.18-4.95-7.37-5.53-3.22-.6-6.48.36-8.86,2.56-16.42,15.13-63.2,33.58-83.53,30.12-2.59-.44-4.57-1.29-5.03-2.16-.9-1.7-1.83-4.03-1.16-5.51,1.2-2.66,6.39-6.73,24.31-11.03,1.97-.47,6.21-1.11,10.71-1.79,17.83-2.68,29.97-4.8,35.96-9.5,19.25-15.11,14.97-51.45,6.03-71.25-1.46-3.24-4.49-5.5-8.02-5.98-3.54-.49-7.05.89-9.32,3.62-9.69,11.62-35.7,30.42-57.38,34.02-2.99.5-5.98.96-8.97,1.42-31.38,4.87-66.96,10.39-76.58,53.21-4.09,18.2-1.08,34.8,8.71,48.03,10.7,14.46,28.47,23.31,50.03,24.94ZM696.93,1000.39c6.22-27.69,26.7-32.23,59.6-37.34,3.05-.47,6.11-.95,9.17-1.46,20.92-3.47,42.42-16.39,57.06-28.65,2.47,13.13,1.53,26.9-4.21,31.42-3.51,2.05-19.09,4.4-26.57,5.53-5.37.81-9.61,1.45-12.45,2.13-15.59,3.74-32.33,9.35-38.32,22.61-2.27,5.03-3.81,13.21,1.74,23.68,2.52,4.74,7.99,10.82,19.8,12.84,24.96,4.27,67.3-11.8,90.87-27.5,1.01,1.65,2.04,3.28,3.06,4.9,6.32,10.07,12.39,19.72,13.26,28.68-25.99-4.48-50.53.29-74.36,4.92-20.02,3.89-38.93,7.56-58.51,6.08-15.49-1.17-27.92-7.08-34.99-16.63-6.11-8.25-7.89-19.05-5.16-31.21Z"/>
        <path class="cls-5" d="M438.63,1175.69c2.48.57,4.91.83,7.3.83,10.82,0,20.64-5.23,28.81-9.58,1.68-.89,3.31-1.76,4.88-2.54,13.96-6.93,20.98-15.92,20.86-26.72-.23-21.51-31.43-37.24-37.68-40.18-2.62-1.23-5.65-1.31-8.32-.2-2.68,1.11-4.77,3.28-5.77,6.01-1.71,4.69-16.76,46.26-18.04,61.47-.43,5.11,2.96,9.77,7.96,10.92ZM464.06,1121.8c8.57,5.52,15.73,12.13,15.77,16.1.02,1.65-2.88,4.77-9.39,8-1.74.87-3.55,1.82-5.41,2.82-3.6,1.92-7.43,3.96-11.14,5.36,2.55-9.43,6.52-21.71,10.16-32.28Z"/>
        <path class="cls-5" d="M512.89,1222.2c-15.43,26.3-8.67,61.81,16.06,84.42,18.24,16.67,44.83,25.97,73.1,25.97,4.71,0,9.47-.26,14.25-.78,27.39-3.01,49.32-14.72,60.17-32.11,6.87-11.01,8.84-23.15,10.28-34.64,1.12-8.95,2.01-18.5-.35-28.14h0c-4.41-18.01-16.51-33.08-35-43.6-24.46-13.92-57.29-17.72-83.63-9.68-17.94,5.48-42.02,16.61-54.89,38.55ZM530.7,1232.65c7.41-12.64,22.72-23.03,43.11-29.25,7.17-2.19,15.08-3.25,23.17-3.25,15.41,0,31.46,3.86,44.23,11.12,9.36,5.33,21.33,14.96,25.15,30.56,1.53,6.24.83,13.34-.08,20.67-1.2,9.59-2.67,18.81-7.32,26.27-7.36,11.81-24.15,20.22-44.91,22.51-27.17,2.98-54.45-4.63-71.16-19.9-17.31-15.82-22.54-41.07-12.18-58.73Z"/>
        <path class="cls-5" d="M593.32,1287.95c8.12,0,16.11-2.31,22.86-5.74h0c20.06-10.23,21.22-22.99,20.12-29.69-2.52-15.38-20.81-26.18-36.74-28.53-12.22-1.81-33.44,3.36-41.46,17.75-3.21,5.77-6.77,17.62,5.54,32.24,8.55,10.16,19.23,13.98,29.67,13.98ZM576.14,1251.8c2.23-4,11.09-7.55,17.97-7.55.85,0,1.67.05,2.44.17,10.24,1.51,18.81,7.98,19.38,11.44.19,1.18-2.11,4.38-9.12,7.95-6.47,3.29-18.62,7.26-27.37-3.13-2.26-2.69-4.67-6.41-3.3-8.87Z"/>
        <path class="cls-5" d="M558.7,1153.91c2.96,2.7,7.21,3.44,10.91,1.91,30.21-12.52,64.87-5.22,95.09,20.01,36.22,30.25,55.65,78.48,47.25,117.28-1.16,5.37,2.08,10.7,7.38,12.15,6.93,1.89,13.49,2.71,19.73,2.71,23.74,0,42.73-11.86,58.63-21.8,2.37-1.48,4.03-3.85,4.62-6.58.58-2.73.04-5.58-1.5-7.9-10.58-15.87-14.28-31.23-14.88-45.44,11.48,10.4,24.06,18.29,34.93,25.11,3,1.88,5.9,3.7,8.65,5.49,3.14,2.05,7.15,2.23,10.46.48,2.41-1.27,4.7-2.45,6.87-3.57,14.18-7.28,25.38-13.04,36.3-28.06,2.01-2.76,2.52-6.34,1.37-9.55-14.6-40.82-9.04-76.16-2-120.91l.6-3.79c.83-5.3-2.54-10.36-7.76-11.63-14.99-3.65-36.45-1.42-63.8,6.62-2.93.86-5.32,2.97-6.55,5.77-1.22,2.8-1.15,5.99.21,8.72,6.65,13.41,8.03,20.87,1.96,53.36-5.03-5.1-8.37-11.63-12.22-19.15-8.4-16.43-18.87-36.87-52.2-45.9-3.9-1.06-8.08.27-10.66,3.39-2.58,3.12-3.1,7.47-1.32,11.1,4.31,8.83,7.26,28.28,3.11,48.14-4.32-3.93-8.72-7.82-13.06-11.65-29.9-26.4-60.83-53.7-58.64-89.21.21-3.3-1.19-6.5-3.73-8.6-2.55-2.11-5.95-2.86-9.15-2.03-48.74,12.58-74.08,40.45-93.48,102.85-1.19,3.83-.06,7.99,2.9,10.69ZM641.99,1064.22c4.66,38.07,36.61,66.27,65.16,91.48,8.72,7.7,16.96,14.98,24.37,22.38,2.44,2.43,5.93,3.49,9.3,2.83,3.38-.67,6.2-2.98,7.53-6.16,7.94-19.05,9.5-40.38,7.19-57.67,10.63,7.14,15.57,16.79,21.02,27.45,6.76,13.21,14.42,28.19,33.81,36.26,2.85,1.19,6.07,1.03,8.8-.41,2.72-1.44,4.66-4.03,5.28-7.05,7.98-39.01,9.43-54.44,4.14-70.12,12.75-3.11,23.81-4.62,32.45-4.43-6.42,41.14-11.13,77.62,2.16,118.86-7.01,8.1-14.47,11.93-25.81,17.76-.56.29-1.14.58-1.72.89-1.26-.8-2.54-1.6-3.85-2.42-15.96-10.01-34.05-21.36-46.24-38.83-2.43-3.48-6.74-5.13-10.88-4.13-4.13.99-7.23,4.41-7.82,8.62-2.82,20.32-3.85,46.6,11.2,74.43-15.16,8.93-28.56,14.71-44.23,13.11,5.09-44.31-16.5-94.16-55.91-127.07-29.96-25.01-64.02-35.15-96.13-29.2,12.4-33.18,28.22-54.84,60.18-66.56Z"/>
        <path class="cls-5" d="M1523.83,707.41c7.16-17.71-7.17-24.11-18.87-18.34-3.32,1.64-6.44,4.26-8.79,7.88-.36-8.56,3.5-27.59,12.28-40.7-8.76,1.53-17.65,10.18-22.97,19.05-5.34,8.89-8.01,19.32-8.79,29.72-2.62,35.11,36.97,27.55,47.14,2.38Z"/>
        <path class="cls-5" d="M1385.42,687.03c-4.99-2.73-10.77-3.08-16.02-.87-12.66,5.33-19.58,22.88-17.63,27.83-8.41-21.39-4.58-48.42,9.35-66.03-34.18,9.07-46.09,51.88-36.74,86.94,2.62,9.83,8,18.54,16.23,23.14,15.78,8.81,36.16,1.08,47.99-12.77,6.19-7.25,10.38-16.67,10.8-26.81.29-7.2-.9-14.55-3.92-20.61-2.27-4.55-5.57-8.36-10.04-10.82Z"/>
        <path class="cls-5" d="M1694.78,833.8c-9.19-37.92-30.59-66.91-61.87-83.84-12.69-6.87-26.32-11.6-40.42-14.65-.01-.29-.04-.58-.08-.87l.08-1c4.34-50.91,10.88-127.83-42.1-165.41-17.03-12.08-35.59-15.47-53.43-10.49.06-1.75.13-3.48.2-5.2,3.5-80.19,11.57-152.97,25.4-229.03.81-4.45-1.37-8.9-5.37-11-4.01-2.09-8.91-1.34-12.1,1.86-36.31,36.41-84.33,126.9-98.48,188.1-5.35-22.72-10.35-45.8-15.22-68.32-9.04-41.82-18.39-85.07-30.11-126.44-1.25-4.41-5.25-7.47-9.84-7.51h-.09c-4.55,0-8.56,2.97-9.88,7.33-13.13,43.34-27.35,135.77-31.55,199.61-47.12-60.83-119.02-141.02-122.55-144.95-3.24-3.6-8.53-4.47-12.74-2.1-4.21,2.37-6.22,7.35-4.82,11.98,1.85,6.15,36.36,120.66,55.39,181.35-41.8-43.58-85.62-76.73-140.24-106.7-4.14-2.27-9.29-1.44-12.52,2.01-3.22,3.46-3.69,8.66-1.13,12.63,11.77,18.27,33.6,55.03,54.72,90.58,12.73,21.43,25.12,42.29,35.47,59.41-3.95-1.89-7.88-3.78-11.79-5.65-45.48-21.86-92.5-44.47-147.6-52.96-4.41-.68-8.8,1.57-10.8,5.58-2.01,4.01-1.2,8.86,2,12,6.9,6.76,13.95,13.6,21.08,20.51,29.45,28.56,59.9,58.08,83.51,86.11.6.71,1.21,1.4,1.83,2.1-3.31,3.71-6.51,7.61-9.59,11.71-2.32,3.1-4.56,6.31-6.73,9.61-15.05-18.96-41.16-31.53-50.25-35.5-20.91-9.14-43.32-12.09-64.48-14.34-3.09-.34-6.19.76-8.38,2.96-2.21,2.2-3.3,5.29-2.97,8.38,1.85,17.6,10.12,34.74,23.32,49.04-19.12,2.39-43.75,6.89-48.56,14.42-2.23,3.48-2.39,7.87-.42,11.46,12.97,23.7,39.89,32.63,64.52,38.23,12.26,2.79,27.73,4.5,42.68,6.15,3.44.38,6.8.75,10.03,1.13-2.19,8.23-4.04,16.34-5.55,24.35-.07.27-.13.54-.2.8-.15.58-.23,1.17-.27,1.77-1.41,7.81-2.5,15.55-3.27,23.24-44.07-16.04-80.8-26.68-102.4-32.44-35.72-9.54-89.56-22-144.75-20.17-103.61,3.46-210.23,58.87-285.23,148.23-30.71,36.59-56.7,78.47-77.86,125.31-27.48-37.44-49.77-82.67-64.15-130.77-1.27-4.24-5.1-7.2-9.53-7.36-4.51-.12-8.46,2.52-10.03,6.67-19.07,50.45-22.69,104.68-10.2,152.7,9.53,36.62,28.43,69.6,53.82,95.04-3.79,15.04-7.19,30.44-10.21,46.2-26.5-.64-48.62,11.05-63,33.52-20.5,32.04-19.91,76.25-6.51,97.45,15.89,25.13,42.56,47.52,79.52,66.86-18.06,53.47-26.96,107.87-23.1,139.7.26,2.19,1.22,4.23,2.73,5.83,35.07,37.26,101.77,47.7,151.55,49.9,7.99.35,15.96.52,23.85.52,49.2,0,95-6.38,119.62-13.17,5.04-1.39,8.24-6.32,7.47-11.49-5.11-33.96-7.22-71.79-7.98-110,50.23-.98,99.64-7.45,136.4-14.98,26.8,73.6-3.19,175.59-3.51,176.65-1.38,4.62.61,9.58,4.8,11.95,25.75,14.6,90.69,21.8,156.02,21.8s137.23-7.89,161.95-23.45c2.81-1.77,4.6-4.78,4.8-8.09,4.07-65.15-5.17-127.17-24.33-178.65,44.33-2.12,85.03-8.12,121.99-17.96,5.52,35.93,6.18,73.53,1.05,106.58-.81,5.23,2.46,10.23,7.58,11.57,23.52,6.18,67.66,12.08,114.71,12.08,6.41,0,12.89-.11,19.36-.34,46.54-1.68,108.89-10.51,141.63-43.05,1.64-1.63,2.68-3.76,2.96-6.05,3.75-30.18-6.5-85.86-24.94-135.39-9.68-26.03-27.7-66.38-54.29-94.4,8.44-14.13,15.91-29.08,22.4-44.85,22.57-17.97,28.81-65.74,27.17-96.47-.06-1.06-.28-2.09-.64-3.06,3.9-26.89,5.79-55.38,5.66-85.44,3.85-.84,7.74-1.78,11.65-2.85,40.27-10.97,75.38-31.75,105.08-62.12,16.25,9.33,27.49,21.58,33.65,36.75,1.43,3.52,4.68,5.98,8.47,6.38.37.04.74.06,1.11.06,3.38,0,6.59-1.67,8.52-4.5,33.59-49.16,58.91-134.72,42.33-203.15ZM1295.36,721.48c-4.18-42.14,5.44-125.7,71.71-140.35,3.74-.83,7.41-1.24,11.01-1.24,14.03,0,26.94,6.28,38.49,18.76,17.44,18.84,26.5,45.94,29.16,65.02,3.53,25.32,5.25,56.02-.31,83.22-44.96,13.1-85.57,31.78-114.66,49.1-20.3-17.14-32.18-42.09-35.4-74.52ZM1466.18,660.82c-.34-2.45-.78-5.02-1.31-7.67,5.29-10.46,11.13-18.36,17.27-23.28,6.23-4.99,14.41-9.58,23.43-9.58,5.82,0,11.99,1.91,18.2,6.86,3.57,2.84,6.6,6.09,9,9.64,14.06,20.82,21.35,62.69,13.83,93.99-27.56.06-55.04,4.48-79.31,10.3,4-27.27,2.25-56.06-1.12-80.25ZM1538.44,584.87c17.32,12.28,26.76,30.8,31.62,51.56-4.57-1.46-9.87-2.75-15.79-3.88-1.39-2.6-2.85-5.05-4.38-7.32-3.58-5.3-8.03-10.09-13.25-14.24-20.38-16.24-44.95-15.23-67.41,2.76-4.24,3.39-8.26,7.61-12.05,12.61-.06,0-.13,0-.19,0-5.72-14.65-14.01-29.57-25.26-41.74-19.57-21.14-43.47-29.32-69.11-23.65-47.31,10.45-73.87,50.35-84.02,95.96-35.01,10.21-77.59,19.49-146.66,19.33,39.56-33.22,89.34-43.91,118.84-47.32,3.58-.42,6.69-2.67,8.19-5.94,20.25-44.05,62.93-71.54,94.02-78.44,66.82-14.84,90.92,13.7,107.01,46.74,1.48,3.03,4.34,5.15,7.67,5.68,3.34.52,6.71-.6,9.05-3.03,19.52-20.23,41.43-23.46,61.72-9.08ZM1495.61,358.62c-10.01,63.25-16.14,125.46-19.08,192.83-.11,2.54-.2,5.12-.29,7.72-.1,2.99-.22,5.81-.36,8.46-1.22.84-2.44,1.72-3.64,2.65-10.46-18.09-25.18-35.28-48.75-44.16,3.65-40.4,37.86-117.88,72.12-167.5ZM1351.76,352.38c7.04,28.54,13.32,57.57,19.45,85.93,5.81,26.88,11.8,54.57,18.39,81.6-12.05-.29-25.65,1.06-41.08,4.49-6.11,1.36-12.52,3.35-19.06,5.93,1.27-46.7,11.26-124,22.3-177.95ZM1203.27,411.24c30.92,35.46,77.52,90.09,105.36,128.32,0,.29-.01.58-.02.87-18.39,10.61-36.54,25.73-51.11,45.08-.57-1.65-1.13-3.25-1.69-4.78-5.78-15.71-34.89-111.24-52.55-169.5ZM1143.77,541.2c-11.39-19.17-22.98-38.69-33.13-55.53,49.43,31.49,90.04,67.95,130.93,116.9.61,1.68,1.26,3.38,1.95,5.09-.26.5-.53.99-.79,1.49-14.33,1.94-32.14,5.44-51.12,11.69-11.81-18.94-30.04-49.65-47.85-79.64ZM1033.42,580.33c37.64,10.28,71.73,26.67,107.34,43.79,6.48,3.11,13.03,6.26,19.65,9.39-15.84,7.77-31.61,17.78-46.06,30.68-.22-.25-.44-.5-.66-.76-23.02-27.32-51.92-55.61-80.27-83.1ZM1041.48,901.76c-20.63-2.99-38.49-7.99-51.34-14.75,9.72-12.35,24.51-26.67,38.97-37.17,3.09,1.1,6.15,2.2,9.19,3.31-.38,16.1.68,32.18,3.17,48.61ZM966.65,884.44c-2.88,4.57-1.76,10.58,2.57,13.8,16.53,12.29,43.9,20.84,76.24,24.82,1.9,8.57,4.18,17.27,6.83,26.15-12.09.08-23.61-.17-34.06-.51-18.85-.61-29.16-7.84-42.21-16.99-12.41-8.7-26.46-18.55-49.45-23.15-3.31-.65-6.72.33-9.16,2.66-2.44,2.33-3.58,5.7-3.07,9.03.56,3.67.54,8.12.51,13.27-.05,9.34-.11,20.3,3.29,32.3-18.87-1.79-29.55-9.78-38.16-17.05-1.69-31.17-10.94-82.3-15.21-104.68,7.72-.81,16.31-1.47,22.67-1.51,3.86,18.41,15.13,38.8,24.58,42.7,4.5,1.86,9.27,1.12,12.75-1.97,13.15-11.67,21.75-34.53,29.86-57.26,17.75,5.07,34.81,10.35,51.19,15.79-16.25,13.55-31.06,29.75-39.17,42.6ZM793.13,800.28c2.79-.09,5.6-.14,8.43-.16.29.59.57,1.18.85,1.79,8.8,19.15,9.04,42.13.65,61.47-8.82,20.32-25.99,36.16-44.83,41.35-52.01,14.31-86.16-14.38-98.42-27.38-9.95-10.55-16.76-21.9-20.75-32.37,48.94-27.19,101.95-42.95,154.08-44.69ZM523.03,941.14c6.37-7.59,12.97-14.91,19.79-21.97.07,28.16,5.58,52.19,9.7,70.14.62,2.7,2.3,5.04,4.67,6.49,2.36,1.45,5.2,1.89,7.9,1.21,29.85-7.46,50.59-21.54,65.96-45.54,1,7.17,1.45,14.78,1.9,22.27.38,6.41.77,12.97,1.51,19.31-41.97,19.52-61.31,29.38-90.5,61.73-15.45-23.67-28.15-61.65-35.43-95.44,4.71-6.21,9.53-12.28,14.5-18.2ZM492.68,981.49c9.57,36.8,24.57,75.16,42.8,96.43,1.96,2.29,4.83,3.61,7.84,3.61h.02c3.02,0,5.89-1.33,7.84-3.64,32.89-38.69,49.39-46.35,98.35-69.07l.59-.27c4.25-1.97,6.64-6.57,5.82-11.18-1.34-7.48-1.84-15.92-2.38-24.85-1.11-18.47-2.25-37.56-10.91-53.36-1.91-3.48-5.65-5.56-9.59-5.35-3.96.21-7.45,2.66-8.98,6.32-13.83,32.99-31.68,46.54-53.83,53.94-4.52-20.67-8.82-46.08-5.62-75.9,17.8-15.96,36.74-30.22,56.48-42.58,5.27,12.49,13.32,24.96,23.68,35.94,23.35,24.75,53.34,37.76,85.41,37.76,10.99,0,22.23-1.53,33.52-4.64,25.08-6.91,46.87-26.73,58.28-53.03,9.63-22.18,10.34-48.12,2.2-70.88,31.73,1.88,66.72,8.1,107.68,19.04h0c.94.25,1.87.5,2.81.76-5.19,14.48-11.24,30.54-18,40.63-4.1-6.79-9.25-18.38-9.92-28.96-.3-4.73-3.78-8.65-8.44-9.5-12.48-2.29-41.52,1.46-47.21,2.24-2.83.39-5.37,1.92-7.02,4.24-1.65,2.32-2.27,5.23-1.71,8.02.16.79,16.04,79.98,17.15,116.84.09,2.92,1.41,5.66,3.63,7.55l1.23,1.05c11.45,9.78,28.35,24.21,61.76,24.21,2.56,0,5.22-.08,7.98-.26,3.51-.23,6.66-2.22,8.36-5.3,1.71-3.07,1.73-6.81.06-9.9-7.2-13.38-7.13-25.76-7.07-37.74,0-.41,0-.82,0-1.23,11.46,4.16,19.88,10.06,28.65,16.21,13.96,9.79,28.39,19.91,53.39,20.72,13.09.43,27.07.69,41.44.48.16.45.31.9.47,1.36,2.11,5.97,4.06,12.08,5.86,18.3-16.37-.71-35.65-2.91-36.7-2.88-5.69.17-10.18,4.91-10.02,10.6.24,8.76,1.34,15.56,2.31,21.56,1.29,7.97,2.21,13.68.5,20.91-12.76-6.99-30.97-21.05-36.28-42.09-.72-2.84-2.61-5.24-5.2-6.61-2.59-1.37-5.65-1.56-8.4-.55l-54.23,20.08c-3.57,1.32-6.12,4.5-6.64,8.27-.19,1.35-17.49,139.74-8.75,182.62.7,3.44,3.1,6.29,6.38,7.56,1.21.47,2.48.7,3.74.7,2.15,0,4.28-.67,6.07-1.97,6.72-4.88,14.33-9.88,22.38-15.17,17.14-11.26,34.87-22.9,44.46-34.16,3.25-3.83,3.28-9.44.07-13.3-13.72-16.46-15.05-33.05-13.5-53.77,2.53,2.74,4.91,5.64,7.34,8.6,8.64,10.51,18.43,22.42,36.28,26.46,2.69.6,5.47.12,7.78-1.34,20.25-12.77,40-22.72,58.02-30.51.22,7.17.28,14.34.19,21.51-3.06,7.33-5.68,14.59-7.86,21.77-13.9,9.84-26.84,20.09-38.14,29.27-14.12,11.46-28.29,23.34-41.99,34.83-51.85,43.49-105.47,88.46-166.97,119.04-91.64,45.56-193.12,50.4-293.45,13.97-69.15-25.1-127.72-72.26-134.7-108.15.34-1.84.69-3.67,1.03-5.51,15.1,10.62,30.08,15.99,44.78,15.99.79,0,1.59-.01,2.38-.05,33.24-1.31,54.7-28.83,66.23-43.61,1.02-1.3,1.94-2.49,2.78-3.53,13.45-16.71,34.09-49.1,21.12-78.25-7.8-17.55-45.09-49.69-80.04-67.27,10.95-22.27,23.09-43.27,36.4-62.99ZM963.48,1150.7c-8.65,7.68-21.67,16.23-34.34,24.55-2.9,1.9-5.84,3.83-8.74,5.77-2.07-42.86,6.78-126.92,9.95-153.33l38.45-14.23c12.16,28.11,40.33,44.76,55.02,49.99,5.01,1.79,10.59-.54,12.83-5.38,8.56-18.43,6.66-30.17,4.65-42.59-.36-2.21-.72-4.44-1.04-6.79,8.32.85,19,1.56,30.45,1.89,4.48,19.96,7.48,40.81,9.08,61.97-19.55,8.08-41.36,18.63-63.93,32.52-8.65-3.21-14.22-9.98-21.05-18.29-6.77-8.24-14.44-17.58-26.48-24.67-3.03-1.79-6.76-1.9-9.9-.32-3.14,1.59-5.25,4.66-5.61,8.16l-.31,3.07c-2.81,27.09-5.48,52.82,11,77.68ZM447.56,1063.05c28.69,14.83,63.14,41.91,69.89,57.09,8.82,19.85-9.88,46.42-18.34,56.92-.9,1.12-1.9,2.39-2.98,3.79-10.13,12.99-27.09,34.74-50.75,35.67-13.02.5-27.02-5.47-41.76-17.78,10.74-49.12,25.42-94.42,43.94-135.68ZM355.44,1069.21c-9.01-34.62-8.82-72.88.27-110.31,16.1,42.91,38.16,82.75,64.28,116.08-9.2,22.6-17.34,46.27-24.4,70.98-18.66-21.45-32.63-47.82-40.15-76.76ZM386.12,1547.28c-2.47-29.07,5.78-77.11,21.57-124.71,8.15,3.72,16.72,7.31,25.71,10.76,57.27,22.03,114.77,32.47,143.96,36.73,20.9,3.05,42.97,4.52,65.2,4.79.7,35.63,2.56,71.07,6.89,103.68-60.04,13.47-208.56,22.09-263.33-31.25ZM799.35,1438.74c-56.15,11.94-145.37,21.64-219.01,10.88-147.21-21.5-227.39-73.01-253.33-114.05-9.59-15.16-8.86-51.35,6.45-75.29,10.23-15.99,24.78-24.05,43.34-24.05.77,0,1.54.01,2.31.04,12.5,42.5,72.09,90.96,146.54,117.99,105.79,38.41,212.88,33.25,309.69-14.89,63.69-31.67,118.27-77.44,171.05-121.7,13.63-11.44,27.73-23.26,41.72-34.62,5.73-4.65,11.89-9.58,18.36-14.58-2.45,18.38-1.85,36.15,1.83,53.17-12.09,50.06-32.36,92.45-59.36,116.57-.02.01-.03.03-.05.05,0,0-.02.02-.03.02-.53.49-1.07.98-1.62,1.47-7.91-4.36-16.12-7.85-24.58-10.39-37.97-11.41-111.89-12.12-183.31,109.38ZM1103.38,1631.63c-22.07,10.07-78.11,17.26-140.95,17.79-63.83.54-118.48-5.51-144.2-15.65,7.17-27.87,26.28-116.63-.75-185.12,47.67-80.77,104.12-116.08,159.24-99.51,37.22,11.19,70.71,45.3,94.31,96.05,24.35,52.36,35.78,118.37,32.35,186.45ZM1091.01,1439.68c-16.84-37.48-39.34-68.05-65.93-88.27,26.83-25.21,47.38-65.81,60.46-113.59,40.21,21.72,126,44.54,212.48,44.54,43.28,0,86.72-5.72,124.71-20.16-14.11,28.21-31.86,53.23-53.24,74.97-62.43,63.48-156.03,97.9-278.48,102.51ZM1464.33,1394.64c18.44,49.57,25.91,97.7,24.15,122.07-50.9,45.56-188.01,37.54-244.39,25.6,4.06-33.41,2.84-70.54-2.86-106.05,57.64-18.2,105.45-46.45,142.97-84.6,12.34-12.55,23.54-26.09,33.6-40.62,17.25,19.53,33.36,48.24,46.52,83.61ZM1644.55,1010.54c-53.48-78.34-222.18-53.64-279.98-45.18l-2.27.33c-38.97,5.69-83.14,12.15-111.72-10.38-17.85-14.07-28.42-38.15-32.26-73.52,5.93.38,11.83,1.86,17.4,4.45,5.2,2.41,11.31.16,13.72-5.01,2.4-5.17.17-11.31-5-13.71-3.27-1.52-6.62-2.77-10.03-3.76-15.52-4.49-32.13-3.42-46.88,3.24-14.33,6.48-33.47,21.19-43.27,54.45-1.61,5.47,1.52,11.21,6.99,12.82.97.29,1.96.42,2.92.42,4.46,0,8.57-2.91,9.9-7.41,6-20.39,17.06-34.72,31.97-41.46.62-.28,1.25-.53,1.88-.79,4.59,40.63,17.66,68.96,39.9,86.49,35.55,28.03,86.52,20.58,127.62,14.58l2.14-.31c47.77-6.99,89.34-10.24,124.65-9.76,36.03.49,65.55,4.85,88.46,13.08-82.41,79.34-183.89,59.31-218.06,49.4-4.65-1.35-8.06-2.51-10-3.21-5.37-1.93-11.28.86-13.21,6.22-1.93,5.37.85,11.28,6.22,13.21,11.68,4.2,43.76,14.15,85.28,14.15,10.29,0,21.16-.62,32.43-2.08-.04,28.27-1.94,55.04-5.68,80.28-94.77,58.47-290.02,30.86-355.66-33.04.41-51.8-6.93-104.15-23.08-149.76-20.42-57.67-23.57-102.13-17.32-143.3,10.28.86,21.72,1.3,34.07,1.3,56.79,0,132.93-9.16,205.04-27.79,3.61,4.7,7.58,9.08,11.91,13.15-3.79,2.64-7.25,5.21-10.32,7.67-3.96,3.18-4.96,8.68-2.61,12.99.29.53.62,1.04,1.01,1.53,3.57,4.44,10.05,5.16,14.51,1.6,51.21-41.03,217.72-112.06,307.86-63.3,26.37,14.26,43.75,38,51.63,70.54,13.63,56.23-3.94,125.48-30.16,171.88Z"/>
      </g>
      <path class="cls-4" d="M1137.8,1187.24c-1.24,7.99-4.74,16.63-12.3,19.76-4.78,1.97-10.35,1.29-15.12-.72-10.44-4.4-17.79-16.14-15.17-27.02,3.32-13.77,17.64-17.67,28.83-13.87,8.71,2.96,15.52,10.59,13.76,21.85ZM1195.48,1189.96c-9.62-2.16-20.1,1.06-24.74,12.46-3.29,8.08-4.89,18.02.31,25.16,3.28,4.51,8.77,7.01,14.25,7.83,12.01,1.8,25.26-4.92,28.9-16.44,4.6-14.59-6.36-26.23-18.72-29ZM1286.4,1204.3c-12.1-4.11-27.59.1-31.19,15-2.84,11.78,5.11,24.48,16.41,29.24,5.16,2.17,11.18,2.91,16.36.78,8.19-3.38,11.97-12.73,13.31-21.38,1.9-12.19-5.47-20.44-14.89-23.64ZM1351.89,1205.14c-7.93,3.22-13.83,10.67-11.58,21.04,1.6,7.36,5.32,15.2,12.52,17.7,4.55,1.58,9.69.64,14.01-1.48,9.46-4.65,15.64-15.95,12.6-25.92-3.85-12.62-17.36-15.47-27.54-11.34ZM1437.74,1189.29c-9.44-3.21-21.53.08-24.33,11.7-2.21,9.19,3.99,19.1,12.8,22.81.09.04.18.07.27.11,7.38,3,15.9-.31,19.67-7.24,7.86-14.42,1.05-24.17-8.41-27.39Z"/>
    </g>
    <rect class="cls-1" x="2650" y="-350" width="1400" height="2700" transform="translate(4350 -2350) rotate(90)"/>
  </g>
</svg>